<svg width="22" height="21" viewBox="0 0 22 21" fill="none" xmlns="http://www.w3.org/2000/svg">
<path d="M21 17.5V7.5C21 6.96957 20.7893 6.46086 20.4142 6.08579C20.0391 5.71071 19.5304 5.5 19 5.5H12.236C11.8645 5.49999 11.5004 5.39651 11.1844 5.20116C10.8684 5.00581 10.6131 4.72631 10.447 4.394L9.553 2.606C9.38687 2.27353 9.13138 1.99394 8.8152 1.79858C8.49902 1.60322 8.13466 1.49983 7.763 1.5H3C2.46957 1.5 1.96086 1.71071 1.58579 2.08579C1.21071 2.46086 1 2.96957 1 3.5V17.5C1 18.0304 1.21071 18.5391 1.58579 18.9142C1.96086 19.2893 2.46957 19.5 3 19.5H19C19.5304 19.5 20.0391 19.2893 20.4142 18.9142C20.7893 18.5391 21 18.0304 21 17.5Z" stroke="#474747" stroke-width="2" stroke-linecap="round" stroke-linejoin="round"/>
<path d="M11 12.5H8M11 9.5V12.5V9.5ZM11 12.5V15.5V12.5ZM11 12.5H14H11Z" stroke="#525354" stroke-width="2" stroke-linecap="round"/>
</svg>
