<svg width="20" height="23" viewBox="0 0 20 23" fill="none" xmlns="http://www.w3.org/2000/svg">
<path d="M16.2725 3.8095C15.4274 2.96915 14.2852 2.49558 13.0934 2.49137C11.9016 2.48716 10.7561 2.95264 9.90504 3.787L2.41254 11.149C2.20009 11.3582 1.91344 11.4746 1.61531 11.473C1.31718 11.4713 1.03186 11.3516 0.821789 11.14C0.717962 11.0353 0.635856 10.9112 0.580196 10.7747C0.524535 10.6381 0.496419 10.492 0.497465 10.3445C0.49851 10.1971 0.528697 10.0513 0.586288 9.91563C0.643879 9.77992 0.727738 9.65693 0.833039 9.55375L8.32329 2.194C9.59766 0.943107 11.3136 0.244736 13.0993 0.250211C14.885 0.255686 16.5966 0.964566 17.8633 2.22325C18.4917 2.84785 18.9904 3.59053 19.3307 4.40858C19.6709 5.22662 19.8461 6.10388 19.8461 6.98988C19.8461 7.87587 19.6709 8.75313 19.3307 9.57117C18.9904 10.3892 18.4917 11.1319 17.8633 11.7565L8.11629 21.463C7.2875 22.2868 6.16638 22.7493 4.99779 22.7493C3.8292 22.7493 2.70808 22.2868 1.87929 21.463C1.46996 21.0559 1.14513 20.5719 0.92347 20.0389C0.701815 19.5058 0.587707 18.9342 0.587707 18.3569C0.587707 17.7796 0.701815 17.208 0.92347 16.6749C1.14513 16.1418 1.46996 15.6578 1.87929 15.2507L10.9693 6.199C11.1805 5.98933 11.466 5.87166 11.7635 5.87166C12.0611 5.87166 12.3466 5.98933 12.5578 6.199C12.662 6.30289 12.7447 6.42632 12.8011 6.56223C12.8576 6.69814 12.8866 6.84384 12.8866 6.991C12.8866 7.13815 12.8576 7.28386 12.8011 7.41977C12.7447 7.55568 12.662 7.67911 12.5578 7.783L3.47004 16.8347C3.26942 17.0342 3.11022 17.2714 3.00158 17.5326C2.89294 17.7938 2.83701 18.074 2.83701 18.3569C2.83701 18.6398 2.89294 18.9199 3.00158 19.1811C3.11022 19.4424 3.26942 19.6795 3.47004 19.879C3.87621 20.284 4.42642 20.5115 5.00004 20.5115C5.57366 20.5115 6.12387 20.284 6.53004 19.879L16.2725 10.1725C16.6919 9.75556 17.0246 9.25984 17.2517 8.71384C17.4788 8.16784 17.5957 7.58234 17.5957 6.991C17.5957 6.39966 17.4788 5.81416 17.2517 5.26816C17.0246 4.72216 16.6919 4.22644 16.2725 3.8095Z" fill="#A3A3A3"/>
</svg>
