<svg width="28" height="29" viewBox="0 0 28 29" fill="none" xmlns="http://www.w3.org/2000/svg">
<circle cx="14" cy="14.5" r="14" fill="#3053D0"/>
<path d="M7 9.375C7 8.87772 7.19754 8.40081 7.54917 8.04917C7.90081 7.69754 8.37772 7.5 8.875 7.5H20.125C20.6223 7.5 21.0992 7.69754 21.4508 8.04917C21.8025 8.40081 22 8.87772 22 9.375V16.875C22 17.3723 21.8025 17.8492 21.4508 18.2008C21.0992 18.5525 20.6223 18.75 20.125 18.75H11.1381C10.8895 18.7501 10.6511 18.8489 10.4753 19.0247L7.80062 21.6994C7.73512 21.765 7.65161 21.8098 7.56066 21.828C7.46971 21.8462 7.3754 21.837 7.28969 21.8015C7.20397 21.7661 7.13069 21.706 7.07912 21.6289C7.02756 21.5519 7.00002 21.4612 7 21.3684V9.375ZM10.2812 10.3125C10.1569 10.3125 10.0377 10.3619 9.94979 10.4498C9.86189 10.5377 9.8125 10.6569 9.8125 10.7812C9.8125 10.9056 9.86189 11.0248 9.94979 11.1127C10.0377 11.2006 10.1569 11.25 10.2812 11.25H18.7188C18.8431 11.25 18.9623 11.2006 19.0502 11.1127C19.1381 11.0248 19.1875 10.9056 19.1875 10.7812C19.1875 10.6569 19.1381 10.5377 19.0502 10.4498C18.9623 10.3619 18.8431 10.3125 18.7188 10.3125H10.2812ZM10.2812 12.6562C10.1569 12.6562 10.0377 12.7056 9.94979 12.7935C9.86189 12.8815 9.8125 13.0007 9.8125 13.125C9.8125 13.2493 9.86189 13.3685 9.94979 13.4565C10.0377 13.5444 10.1569 13.5938 10.2812 13.5938H18.7188C18.8431 13.5938 18.9623 13.5444 19.0502 13.4565C19.1381 13.3685 19.1875 13.2493 19.1875 13.125C19.1875 13.0007 19.1381 12.8815 19.0502 12.7935C18.9623 12.7056 18.8431 12.6562 18.7188 12.6562H10.2812ZM10.2812 15C10.1569 15 10.0377 15.0494 9.94979 15.1373C9.86189 15.2252 9.8125 15.3444 9.8125 15.4688C9.8125 15.5931 9.86189 15.7123 9.94979 15.8002C10.0377 15.8881 10.1569 15.9375 10.2812 15.9375H14.9688C15.0931 15.9375 15.2123 15.8881 15.3002 15.8002C15.3881 15.7123 15.4375 15.5931 15.4375 15.4688C15.4375 15.3444 15.3881 15.2252 15.3002 15.1373C15.2123 15.0494 15.0931 15 14.9688 15H10.2812Z" fill="white"/>
</svg>
