<svg width="28" height="29" viewBox="0 0 28 29" fill="none" xmlns="http://www.w3.org/2000/svg">
<circle cx="14" cy="14.5" r="14" fill="#CF16DF"/>
<path d="M6.79065 10.4669L13.2073 13.9139C13.4229 14.0294 13.7018 14.0842 13.9824 14.0842C14.2631 14.0842 14.542 14.0294 14.7576 13.9139L21.1742 10.4669C21.5926 10.2419 21.9879 9.36667 21.2204 9.36667H6.74531C5.97787 9.36667 6.37314 10.2419 6.79065 10.4669V10.4669ZM21.3685 12.3517L14.7576 15.797C14.4667 15.9493 14.2631 15.9673 13.9824 15.9673C13.7018 15.9673 13.4982 15.9493 13.2073 15.797C12.9164 15.6447 7.10464 12.5981 6.62981 12.3508C6.29614 12.1763 6.29956 12.3808 6.29956 12.5382V18.7778C6.29956 19.1371 6.78381 19.6333 7.15512 19.6333H20.844C21.2153 19.6333 21.6996 19.1371 21.6996 18.7778V12.5391C21.6996 12.3816 21.703 12.1772 21.3685 12.3517V12.3517Z" fill="white"/>
</svg>
