<svg width="27" height="27" viewBox="0 0 27 27" fill="currentColor" xmlns="http://www.w3.org/2000/svg">
<path d="M24.5584 13.1546L2.50221 2.09619C2.41257 2.05137 2.30973 2.04082 2.21218 2.06455C1.98805 2.11992 1.84831 2.34668 1.90368 2.57344L4.17653 11.86C4.21081 11.9997 4.31364 12.1131 4.45075 12.1579L8.34519 13.4947L4.45339 14.8315C4.31628 14.879 4.21345 14.9897 4.18181 15.1295L1.90368 24.4292C1.87995 24.5268 1.8905 24.6296 1.93532 24.7166C2.03815 24.9249 2.29128 25.0093 2.50221 24.9064L24.5584 13.9113C24.6401 13.8718 24.706 13.8032 24.7482 13.7241C24.8511 13.5132 24.7667 13.2601 24.5584 13.1546ZM4.50348 21.7872L5.82976 16.3661L13.6134 13.6951C13.674 13.674 13.7241 13.6266 13.7452 13.5633C13.7821 13.4525 13.7241 13.3339 13.6134 13.2943L5.82976 10.626L4.50876 5.22598L21.0674 13.529L4.50348 21.7872Z"/>
</svg>
