<svg width="31" height="31" viewBox="0 0 31 31" fill="none" xmlns="http://www.w3.org/2000/svg">
<g clip-path="url(#clip0_243_596)">
<path d="M8.19352 26.5502L8.7003 26.8007C10.8122 28.0531 13.1773 28.6375 15.5425 28.6375C22.9758 28.6375 29.0576 22.6262 29.0576 15.2789C29.0576 11.7723 27.6216 8.34917 25.0876 5.84439C22.5534 3.33962 19.1745 1.92032 15.5425 1.92032C8.10912 1.92032 2.02719 7.93168 2.11171 15.3625C2.11171 17.8671 2.87194 20.2885 4.13894 22.3756L4.47679 22.8767L3.12539 27.8027L8.19352 26.5502Z" fill="#00E676"/>
<path d="M26.5235 4.50852C23.6515 1.58639 19.6815 0 15.6269 0C7.01109 0 0.0845234 6.92976 0.168926 15.3624C0.168926 18.0341 0.929152 20.6224 2.19628 22.9601L0 30.8918L8.19357 28.8045C10.4742 30.057 13.0083 30.6414 15.5425 30.6414C24.0739 30.6414 31.0005 23.7115 31.0005 15.279C31.0005 11.1879 29.3955 7.34724 26.5236 4.50852H26.5235ZM15.6269 28.0532C13.3462 28.0532 11.0655 27.4689 9.12272 26.3L8.61594 26.0495L3.71673 27.3018L4.98373 22.5429L4.64588 22.0418C0.929152 16.114 2.70305 8.26563 8.78487 4.59195C14.8667 0.91839 22.7224 2.67175 26.4391 8.68311C30.1557 14.6945 28.3818 22.4592 22.3001 26.1329C20.3572 27.3852 17.9921 28.0531 15.6269 28.0531V28.0532ZM23.0602 18.7858L22.1311 18.3683C22.1311 18.3683 20.7797 17.7838 19.9349 17.3663C19.8504 17.3663 19.766 17.2828 19.6815 17.2828C19.428 17.2828 19.2591 17.3663 19.0902 17.4499C19.0902 17.4499 19.0058 17.5333 17.8232 18.8692C17.7387 19.0362 17.5697 19.1197 17.4008 19.1197H17.3163C17.2319 19.1197 17.063 19.0362 16.9784 18.9527L16.5561 18.7858C15.6269 18.3683 14.7823 17.8673 14.1065 17.1994C13.9375 17.0324 13.6841 16.8654 13.5152 16.6985C12.9239 16.114 12.3326 15.446 11.9103 14.6946L11.8258 14.5276C11.7414 14.4441 11.7414 14.3607 11.6568 14.1937C11.6568 14.0267 11.6568 13.8598 11.7414 13.7762C11.7414 13.7762 12.0792 13.3587 12.3326 13.1083C12.5016 12.9412 12.586 12.6908 12.7549 12.5239C12.9239 12.2734 13.0084 11.9394 12.9239 11.6889C12.8394 11.2714 11.8258 9.01717 11.5724 8.51626C11.4034 8.26575 11.2346 8.18232 10.9811 8.09878H10.052C9.88295 8.09878 9.71414 8.18232 9.54509 8.18232L9.46057 8.26575C9.29164 8.34929 9.12272 8.51626 8.95379 8.59969C8.78487 8.76678 8.70034 8.93363 8.53142 9.10071C7.94012 9.85214 7.60227 10.7705 7.60227 11.6889C7.60227 12.3568 7.77119 13.0248 8.02464 13.6092L8.10916 13.8598C8.86939 15.446 9.88295 16.8654 11.2346 18.1178L11.5724 18.4517C11.8258 18.7022 12.0792 18.8692 12.2481 19.1196C14.0221 20.6225 16.0493 21.7079 18.33 22.2924C18.5834 22.3758 18.9213 22.3758 19.1747 22.4593H20.0193C20.4417 22.4593 20.9485 22.2924 21.2865 22.1254C21.5398 21.9584 21.7087 21.9584 21.8776 21.7914L22.0467 21.6244C22.2156 21.4574 22.3845 21.374 22.5535 21.207C22.7224 21.04 22.8913 20.8731 22.9758 20.706C23.1448 20.372 23.2292 19.9545 23.3137 19.5372V18.9527C23.3137 18.9527 23.2292 18.8692 23.0602 18.7858Z" fill="white"/>
</g>
<defs>
<clipPath id="clip0_243_596">
<rect width="31" height="31" fill="white"/>
</clipPath>
</defs>
</svg>
